<?xml version="1.0" encoding="utf-8"?>
<!-- Generator: Adobe Illustrator 22.1.0, SVG Export Plug-In . SVG Version: 6.00 Build 0)  -->
<svg version="1.1"
	 id="svg2" inkscape:version="0.91 r13725" sodipodi:docname="database-lock.svg" xmlns:cc="http://creativecommons.org/ns#" xmlns:dc="http://purl.org/dc/elements/1.1/" xmlns:inkscape="http://www.inkscape.org/namespaces/inkscape" xmlns:rdf="http://www.w3.org/1999/02/22-rdf-syntax-ns#" xmlns:sodipodi="http://sodipodi.sourceforge.net/DTD/sodipodi-0.dtd" xmlns:svg="http://www.w3.org/2000/svg"
	 xmlns="http://www.w3.org/2000/svg" xmlns:xlink="http://www.w3.org/1999/xlink" x="0px" y="0px" viewBox="0 0 354.3 217.9"
	 style="enable-background:new 0 0 354.3 217.9;" xml:space="preserve">
<style type="text/css">
	.st0{fill:#FFFFFF;}
	.st1{fill:#0078D7;}
	.st2{fill:#ED9292;}
	.st3{fill:none;}
	.st4{fill:#29354A;}
	.st5{fill:none;stroke:#313131;}
	.st6{stroke:#000000;stroke-width:0.625;stroke-linejoin:round;}
	.st7{enable-background:new    ;}
	.st8{fill:none;stroke:#313131;stroke-width:1.0884;}
	.st9{fill:none;stroke:#000000;}
	.st10{fill:#FFFFFF;stroke:#000000;stroke-miterlimit:10;}
</style>
<sodipodi:namedview  bordercolor="#666666" borderopacity="1.0" fit-margin-bottom="0" fit-margin-left="0" fit-margin-right="0" fit-margin-top="0" id="base" inkscape:current-layer="g8060" inkscape:cx="67.857141" inkscape:cy="44.15732" inkscape:document-units="px" inkscape:pageopacity="0.0" inkscape:pageshadow="2" inkscape:window-height="801" inkscape:window-maximized="1" inkscape:window-width="1536" inkscape:window-x="-8" inkscape:window-y="-8" inkscape:zoom="1.4" pagecolor="#ffffff" showgrid="false" units="px">
	</sodipodi:namedview>
<g id="layer1" transform="translate(-41.854622,-629.40924)" inkscape:groupmode="layer" inkscape:label="Layer 1">
	<g id="Layer_1-6" transform="matrix(1.57723,0,0,1.57723,126.27098,652.10663)">
		<g id="Azure">
		</g>
		<g id="BizTalk_Services" transform="translate(37.3575,-2500.2)">
		</g>
		<g id="Key_Vault">
		</g>
		<g id="Mobile_Engagement">
		</g>
		<g id="Office_subscription">
			<g id="Office_subscription_1_">
			</g>
		</g>
	</g>
	<g id="Layer_57" transform="matrix(1.57723,0,0,1.57723,126.27098,652.10663)">
	</g>
	<rect id="rect8170" x="41.9" y="629.4" class="st0" width="354.3" height="217.9"/>
</g>
<g id="Layer_1" transform="translate(-25.706573,19.313864)">
</g>
<g id="g5197" transform="translate(-27.726878,131.4408)">
</g>
<g id="paths" transform="matrix(1.57723,0,0,1.57723,230.98892,98.69099)">
	<g id="Access_control">
	</g>
	<g id="Azure_active_directory">
	</g>
	<g id="API_Management">
	</g>
	<g id="Azure_automation">
	</g>
	<g id="Azure_SQL_database">
	</g>
	<g id="Azure_subscription">
	</g>
	<g id="Backup_service">
	</g>
	<g id="Bitbucket_code_source">
	</g>
	<g id="Azure_cache">
	</g>
	<g id="Content_delivery_network__x28_CDN_x29_">
	</g>
	<g id="Cloud_service">
	</g>
	<g id="CodePlex">
	</g>
	<g id="Dropbox_code_source">
	</g>
	<g id="Express_route">
	</g>
	<g id="Git_repository">
	</g>
	<g id="GitHub_code">
	</g>
	<g id="HD_Insight">
	</g>
	<g id="Health_monitoring">
	</g>
	<g id="Healthy">
	</g>
	<g id="BizTalk_hybrid_connection">
	</g>
	<g id="Hybrid_connection_manager_for_BizTalk_hybrid_connection">
	</g>
	<g id="Hyper-V_recovery_manager">
	</g>
	<g id="Machine_learning">
	</g>
	<g id="Media_services">
	</g>
	<g id="Microsoft_account">
	</g>
	<g id="Mobile_services">
	</g>
	<g id="Multi-factor_authentication">
	</g>
	<g id="MySQL_database">
	</g>
	<g id="Notification_hub">
	</g>
	<g id="Notification_topic">
	</g>
	<g id="Cloud_Office_365">
	</g>
	<g id="Office_365">
	</g>
	<g id="OS_image">
	</g>
	<g id="Remote_app">
	</g>
	<g id="Task_scheduler">
	</g>
	<g id="Azure_SDK">
	</g>
	<g id="Service_bus">
	</g>
	<g id="Service_bus_queue">
	</g>
	<g id="Service_bus_relay">
	</g>
	<g id="Service_bus_topic">
	</g>
	<g id="Service_endpoint">
	</g>
	<g id="Custom_create">
	</g>
	<g id="SQL_data_sync">
	</g>
	<g id="g55">
		<path id="path57" inkscape:connector-curvature="0" class="st1" d="M55.2,16.2c-0.1-0.2-0.3-0.3-0.4-0.5c-0.2-0.1-0.4-0.2-0.6-0.2
			c-0.3,0-0.5,0.1-0.7,0.2c-0.2,0.1-0.3,0.3-0.5,0.4c-0.1,0.2-0.2,0.4-0.3,0.6c-0.1,0.2-0.1,0.5-0.1,0.8c0,0.4,0,0.7,0.1,0.9
			c0.1,0.3,0.2,0.5,0.3,0.6c0.1,0.2,0.3,0.3,0.5,0.3c0.2,0.1,0.4,0.1,0.6,0.1s0.4,0,0.5-0.1c0.2-0.1,0.3-0.2,0.5-0.4
			c0.1-0.2,0.2-0.4,0.3-0.6c0.1-0.2,0.1-0.5,0.1-0.9c0-0.3,0-0.5-0.1-0.8C55.4,16.6,55.3,16.4,55.2,16.2L55.2,16.2z"/>
		<path id="path59" inkscape:connector-curvature="0" class="st1" d="M53.9-2.9c-8,0-14.4,2.7-14.4,5.7v27c0,3,6.5,5.8,14.4,5.8
			c8,0,14.4-2.7,14.4-5.7v-27C68.4-0.1,61.9-2.9,53.9-2.9z M49.6,19.7c0,0.2-0.1,0.4-0.2,0.6c-0.1,0.2-0.2,0.4-0.4,0.5
			c-0.2,0.2-0.4,0.3-0.6,0.4c-0.2,0.1-0.5,0.2-0.9,0.3c-0.3,0.1-0.7,0.1-1.2,0.1c-0.2,0-0.5,0-0.7,0s-0.4,0-0.6-0.1
			c-0.2,0-0.4-0.1-0.5-0.1c-0.2,0-0.3-0.1-0.4-0.2v-2.1c0.1,0.1,0.3,0.2,0.5,0.3s0.3,0.2,0.5,0.3s0.4,0.1,0.6,0.2
			c0.2,0.1,0.4,0.1,0.6,0.1s0.3,0,0.4-0.1c0.1,0,0.2-0.1,0.2-0.1c0.1,0,0.1-0.1,0.1-0.2c0-0.1,0-0.1,0-0.2c0-0.1,0-0.2-0.1-0.3
			c-0.1-0.1-0.1-0.2-0.2-0.2c-0.1-0.1-0.2-0.1-0.4-0.2c-0.2-0.1-0.3-0.1-0.5-0.2c-0.3-0.1-0.6-0.3-0.9-0.5c-0.2-0.2-0.4-0.3-0.6-0.5
			c-0.2-0.2-0.3-0.4-0.3-0.6c-0.1-0.2-0.1-0.5-0.1-0.7c0-0.4,0.1-0.7,0.2-1c0.2-0.3,0.4-0.6,0.6-0.8c0.3-0.2,0.6-0.4,1-0.5
			s0.8-0.2,1.3-0.2c0.3,0,0.5,0,0.7,0s0.4,0,0.6,0.1c0.2,0,0.3,0.1,0.5,0.1s0.3,0.1,0.4,0.1v2c-0.1-0.1-0.2-0.1-0.4-0.2
			c-0.1-0.1-0.3-0.1-0.5-0.2c-0.2-0.1-0.3-0.1-0.5-0.1s-0.4,0-0.6,0c-0.3,0-0.5,0-0.6,0.1c-0.2,0.1-0.2,0.2-0.2,0.4
			c0,0.1,0,0.2,0.1,0.2c0,0.1,0.1,0.1,0.2,0.2c0.1,0.1,0.2,0.1,0.3,0.2c0.1,0.1,0.3,0.1,0.5,0.2c0.3,0.1,0.6,0.3,0.9,0.4
			c0.3,0.2,0.5,0.3,0.7,0.5s0.3,0.4,0.5,0.6c0.1,0.2,0.2,0.5,0.2,0.9C49.7,19.3,49.6,19.5,49.6,19.7z M55.5,23.5l-1.7-1.8
			c-0.5,0-1-0.2-1.4-0.3c-0.4-0.2-0.8-0.5-1.1-0.8c-0.3-0.3-0.6-0.7-0.8-1.2c-0.2-0.5-0.3-1-0.3-1.6s0.1-1.2,0.3-1.7
			c0.2-0.5,0.5-0.9,0.8-1.3c0.3-0.4,0.8-0.6,1.2-0.8c0.5-0.2,1-0.3,1.6-0.3s1.1,0.1,1.5,0.3c0.5,0.2,0.9,0.5,1.2,0.8
			c0.3,0.3,0.6,0.8,0.8,1.2c0.2,0.5,0.3,1,0.3,1.7c0,0.4,0,0.9-0.2,1.2c-0.1,0.4-0.3,0.7-0.5,1s-0.4,0.6-0.7,0.8
			c-0.3,0.2-0.5,0.4-0.9,0.6l2.6,2.2H55.5L55.5,23.5z M64.1,21.5h-5v-7.7h2.3v5.9h2.7V21.5z M53.9,5.5c-5.7,0-10.3-1.4-10.3-3.1
			c0-1.7,4.6-3.1,10.3-3.1c5.7,0,10.3,1.4,10.3,3.1C64.2,4.1,59.6,5.5,53.9,5.5z"/>
	</g>
</g>
<rect id="rect6243" x="191.6" y="82.1" class="st2" width="80.6" height="12.9"/>
<rect id="rect6245" x="191.4" y="149.9" class="st2" width="81.3" height="19.3"/>
<g id="g7468">
	<path id="path7472" inkscape:connector-curvature="0" class="st3" d="M273.5,89.9V77h12.9h12.9v12.9v12.9h-12.9h-12.9V89.9
		L273.5,89.9z"/>
	<path id="path7470" inkscape:connector-curvature="0" class="st3" d="M278.5,102.5c-0.6-0.3-0.8-0.6-1-1.1
		c-0.2-0.5-0.2-1.3-0.2-6.5l0-5.9l0.4-0.5c0.5-0.6,0.8-0.8,1.6-0.8l0.7-0.1l0.1-3c0.1-2.2,0.1-3.2,0.3-3.6c0.8-2.1,2.7-3.6,5.1-3.9
		c3.2-0.5,6.2,1.2,7.2,3.9c0.1,0.4,0.2,1.4,0.3,3.6l0.1,3l0.7,0.1c0.9,0.1,1.2,0.2,1.6,0.8l0.4,0.5l0,5.9c0,6.7,0,6.7-0.8,7.4
		l-0.5,0.4l-7.8,0C279.8,102.7,278.8,102.7,278.5,102.5L278.5,102.5z M288.1,98.5c0-0.3-0.1-1.1-0.2-1.9l-0.2-1.4l0.4-0.5
		c0.4-0.5,0.4-0.6,0.4-1.3c0-0.6-0.1-0.8-0.3-1.1c-0.9-1.3-2.5-1.3-3.5,0c-0.2,0.3-0.3,0.6-0.3,1.1c0,0.7,0.1,0.8,0.4,1.3
		c0.2,0.3,0.4,0.6,0.4,0.7s-0.1,0.9-0.3,1.7s-0.2,1.6-0.2,1.7c0.1,0.2,0.3,0.2,1.7,0.2l1.6,0L288.1,98.5L288.1,98.5z M290.1,85
		c0-1.5,0-2.8,0-3.1c-0.3-1.4-2.5-2.5-4.3-2.1c-1,0.2-1.4,0.4-2,1c-0.8,0.7-0.8,0.8-0.8,3.9c0,1.5,0,2.9,0.1,2.9
		c0,0,1.7,0.1,3.6,0.1l3.5,0L290.1,85L290.1,85z"/>
</g>
<g id="g7515" transform="translate(-7.213203,-0.01663144)">
	<g id="g7474" transform="matrix(0.45003489,0,0,0.45003489,177.30552,82.501783)">
		<path id="path7476" inkscape:connector-curvature="0" class="st4" d="M236.8,26c-0.6-0.3-0.8-0.6-1-1.1c-0.2-0.5-0.2-1.3-0.2-6.5
			l0-5.9L236,12c0.5-0.6,0.8-0.8,1.6-0.8l0.7-0.1l0.1-3c0.1-2.2,0.1-3.2,0.3-3.6c0.8-2.1,2.7-3.6,5.1-3.9c3.2-0.5,6.2,1.2,7.2,3.9
			c0.1,0.4,0.2,1.4,0.3,3.6l0.1,3l0.7,0.1c0.9,0.1,1.2,0.2,1.6,0.8l0.4,0.5l0,5.9c0,6.7,0,6.7-0.8,7.4l-0.5,0.4l-7.8,0
			C238.1,26.2,237.1,26.2,236.8,26L236.8,26z M246.5,22c0-0.3-0.1-1.1-0.2-1.9l-0.2-1.4l0.4-0.5c0.4-0.5,0.4-0.6,0.4-1.3
			c0-0.6-0.1-0.8-0.3-1.1c-0.9-1.3-2.5-1.3-3.5,0c-0.2,0.3-0.3,0.6-0.3,1.1c0,0.7,0.1,0.8,0.4,1.3c0.2,0.3,0.4,0.6,0.4,0.7
			s-0.1,0.9-0.3,1.7s-0.2,1.6-0.2,1.7c0.1,0.2,0.3,0.2,1.7,0.2l1.6,0L246.5,22L246.5,22z M248.4,8.4c0-1.5,0-2.8,0-3.1
			c-0.3-1.4-2.5-2.5-4.3-2.1c-1,0.2-1.4,0.4-2,1c-0.8,0.7-0.8,0.8-0.8,3.9c0,1.5,0,2.9,0.1,2.9c0,0,1.7,0.1,3.6,0.1l3.5,0L248.4,8.4
			L248.4,8.4z"/>
	</g>
	<path id="path7476-2" inkscape:connector-curvature="0" class="st0" d="M287.5,89.2c-0.3,0-0.6,0.1-0.8,0.4
		c-0.1,0.1-0.1,0.3-0.1,0.5c0,0.3,0,0.4,0.2,0.6c0.1,0.1,0.2,0.3,0.2,0.3c0,0.1-0.1,0.4-0.1,0.8s-0.1,0.7-0.1,0.8
		c0,0.1,0.1,0.1,0.7,0.1l0.7,0l0-0.2c0-0.1-0.1-0.5-0.1-0.8L288,91l0.2-0.2c0.2-0.2,0.2-0.3,0.2-0.6c0-0.3,0-0.4-0.1-0.5
		C288,89.3,287.8,89.2,287.5,89.2L287.5,89.2z"/>
</g>
<g id="g7520" transform="translate(-8.4758941,71.054809)">
	<g id="g7522" transform="matrix(0.45003489,0,0,0.45003489,177.30552,82.501783)">
		<path id="path7524" inkscape:connector-curvature="0" class="st4" d="M236.8,26c-0.6-0.3-0.8-0.6-1-1.1c-0.2-0.5-0.2-1.3-0.2-6.5
			l0-5.9L236,12c0.5-0.6,0.8-0.8,1.6-0.8l0.7-0.1l0.1-3c0.1-2.2,0.1-3.2,0.3-3.6c0.8-2.1,2.7-3.6,5.1-3.9c3.2-0.5,6.2,1.2,7.2,3.9
			c0.1,0.4,0.2,1.4,0.3,3.6l0.1,3l0.7,0.1c0.9,0.1,1.2,0.2,1.6,0.8l0.4,0.5l0,5.9c0,6.7,0,6.7-0.8,7.4l-0.5,0.4l-7.8,0
			C238.1,26.2,237.1,26.2,236.8,26L236.8,26z M246.5,22c0-0.3-0.1-1.1-0.2-1.9l-0.2-1.4l0.4-0.5c0.4-0.5,0.4-0.6,0.4-1.3
			c0-0.6-0.1-0.8-0.3-1.1c-0.9-1.3-2.5-1.3-3.5,0c-0.2,0.3-0.3,0.6-0.3,1.1c0,0.7,0.1,0.8,0.4,1.3c0.2,0.3,0.4,0.6,0.4,0.7
			s-0.1,0.9-0.3,1.7s-0.2,1.6-0.2,1.7c0.1,0.2,0.3,0.2,1.7,0.2l1.6,0L246.5,22L246.5,22z M248.4,8.4c0-1.5,0-2.8,0-3.1
			c-0.3-1.4-2.5-2.5-4.3-2.1c-1,0.2-1.4,0.4-2,1c-0.8,0.7-0.8,0.8-0.8,3.9c0,1.5,0,2.9,0.1,2.9c0,0,1.7,0.1,3.6,0.1l3.5,0L248.4,8.4
			L248.4,8.4z"/>
	</g>
	<path id="path7526" inkscape:connector-curvature="0" class="st0" d="M287.5,89.2c-0.3,0-0.6,0.1-0.8,0.4c-0.1,0.1-0.1,0.3-0.1,0.5
		c0,0.3,0,0.4,0.2,0.6c0.1,0.1,0.2,0.3,0.2,0.3c0,0.1-0.1,0.4-0.1,0.8s-0.1,0.7-0.1,0.8c0,0.1,0.1,0.1,0.7,0.1l0.7,0l0-0.2
		c0-0.1-0.1-0.5-0.1-0.8L288,91l0.2-0.2c0.2-0.2,0.2-0.3,0.2-0.6c0-0.3,0-0.4-0.1-0.5C288,89.3,287.8,89.2,287.5,89.2L287.5,89.2z"
		/>
</g>
<g id="g5342">
	
		<ellipse id="path5124" transform="matrix(0.9985 -5.530038e-02 5.530038e-02 0.9985 -2.4074 2.8063)" class="st5" cx="49.5" cy="44.9" rx="36.4" ry="36.4"/>
	<g id="Ibiza_Symbols" transform="translate(-28.737032,20.324009)">
		<g id="g6">
			<path id="path8" inkscape:connector-curvature="0" class="st1" d="M94.6,7.3H61.5c-1.1,0-2,1-2,2.1v23.1c0,1.1,0.9,2.1,2,2.1
				h11.3c1.2,4.3-0.4,4.9-7.6,4.9v2.3h9.1H81h8.6v-2.3c-7.2,0-7.9-0.6-6.7-4.9h11.7c1.1,0,2.3-1,2.3-2.1V9.4
				C96.9,8.3,95.7,7.3,94.6,7.3z M94,10.1v21.6H62.3V10.1H94L94,10.1z"/>
			<g id="group975-1984_1_" transform="translate(1176.51,-2762.63)">
				<title  id="title11">Sheet.975</title>
				<g id="shape976-1985_2_" transform="translate(0.8685,-17.652)">
					<title  id="title14">Sheet.976</title>
					<path id="path16" inkscape:connector-curvature="0" class="st1" d="M-1093.8,2797.2l-5.8-3.3l-5.8,3.3v0.1l5.8,3.3
						L-1093.8,2797.2L-1093.8,2797.2L-1093.8,2797.2z"/>
				</g>
				<g id="shape977-1987_1_" transform="translate(15.8925,0)">
					<title  id="title19">Sheet.977</title>
					<path id="path21" inkscape:connector-curvature="0" class="st1" d="M-1114,2783.9v6.6l5.8-3.3v-6.6L-1114,2783.9z"/>
				</g>
				<g id="shape978-1989_1_">
					<title  id="title24">Sheet.978</title>
					<path id="path26" inkscape:connector-curvature="0" class="st1" d="M-1099.3,2783.9l-5.8-3.3v6.6l5.8,3.3V2783.9z"/>
				</g>
			</g>
		</g>
	</g>
</g>
<g id="g5377">
	<g id="g5360">
		
			<ellipse id="path5124-6" transform="matrix(0.9985 -5.530038e-02 5.530038e-02 0.9985 -8.5802 2.9771)" class="st5" cx="49.5" cy="156.5" rx="36.4" ry="36.4"/>
		<g id="g5199" transform="translate(-28.737032,131.9459)">
			<g id="g5201">
				<path id="path5203" inkscape:connector-curvature="0" class="st1" d="M94.6,7.3H61.5c-1.1,0-2,1-2,2.1v23.1c0,1.1,0.9,2.1,2,2.1
					h11.3c1.2,4.3-0.4,4.9-7.6,4.9v2.3h9.1H81h8.6v-2.3c-7.2,0-7.9-0.6-6.7-4.9h11.7c1.1,0,2.3-1,2.3-2.1V9.4
					C96.9,8.3,95.7,7.3,94.6,7.3z M94,10.1v21.6H62.3V10.1H94L94,10.1z"/>
				<g id="g5205" transform="translate(1176.51,-2762.63)">
					<title  id="title5207">Sheet.975</title>
					<g id="g5209" transform="translate(0.8685,-17.652)">
						<title  id="title5211">Sheet.976</title>
						<path id="path5213" inkscape:connector-curvature="0" class="st1" d="M-1093.8,2797.2l-5.8-3.3l-5.8,3.3v0.1l5.8,3.3
							L-1093.8,2797.2L-1093.8,2797.2L-1093.8,2797.2z"/>
					</g>
					<g id="g5215" transform="translate(15.8925,0)">
						<title  id="title5217">Sheet.977</title>
						<path id="path5219" inkscape:connector-curvature="0" class="st1" d="M-1114,2783.9v6.6l5.8-3.3v-6.6L-1114,2783.9z"/>
					</g>
					<g id="g5221">
						<title  id="title5223">Sheet.978</title>
						<path id="path5225" inkscape:connector-curvature="0" class="st1" d="M-1099.3,2783.9l-5.8-3.3v6.6l5.8,3.3V2783.9z"/>
					</g>
				</g>
			</g>
		</g>
	</g>
</g>
<path class="st3" d=""/>
<path id="path5424" inkscape:connector-curvature="0" class="st6" d="M176.2,80.5l9.6,8.5l-12.8-0.3C175.7,87,177,83.7,176.2,80.5z"
	/>
<path id="path5397" inkscape:connector-curvature="0" class="st6" d="M184.5,88.5"/>
<path class="st3" d=""/>
<path id="path5689" inkscape:connector-curvature="0" class="st6" d="M174.8,153l12,4.4l-12,4.5C176.8,159.2,176.7,155.7,174.8,153z
	"/>
<path id="path5685" inkscape:connector-curvature="0" sodipodi:nodetypes="cc" class="st6" d="M185.5,157.4"/>
<g class="st7">
	<path d="M122.6,47.8h0.8h0.8l3.9,10.8h-0.8h-0.8l-1.1-3.1h-4.3l-1.1,3.1h-0.7h-0.8L122.6,47.8z M121.7,54.2h3.4l-1.7-4.8h0
		L121.7,54.2z"/>
	<path d="M129.4,47.8h0.7h0.7V54l3.3-3.3h0.8h0.8l-3,2.9l3.2,4.9H135h-0.9l-2.4-4l-1,1v3H130h-0.7V47.8z"/>
	<path d="M139.7,58.6c-0.4,0.1-0.8,0.1-1,0.1c-0.6,0-1-0.1-1.2-0.4s-0.4-0.7-0.4-1.3v-5.2h-1.1v-1.1h1.1v-2.2h1.3v2.2h1.2v1.1h-1.2
		V57c0,0.2,0.1,0.3,0.2,0.4c0.1,0.1,0.3,0.2,0.6,0.2h0.5V58.6z"/>
	<path d="M142.4,55.8c0,0.7,0.1,1.1,0.4,1.4c0.3,0.3,0.7,0.4,1.2,0.4c0.6,0,1.1-0.2,1.5-0.7c0.4-0.5,0.6-1.2,0.6-2v-4.2h0.7h0.7v7.8
		h-0.6h-0.6v-1.2c-0.1,0.1-0.2,0.3-0.3,0.4c-0.6,0.7-1.3,1-2.1,1c-0.9,0-1.6-0.2-2-0.7s-0.7-1.1-0.7-2v-5.4h0.7h0.7V55.8z"/>
	<path d="M151.4,58.8c-0.8,0-1.4-0.2-1.8-0.6s-0.7-1-0.7-1.7c0-0.7,0.2-1.3,0.6-1.7c0.4-0.4,1-0.7,1.8-0.8l1.8-0.2
		c0.1,0,0.3,0,0.4-0.1c0.2,0,0.3-0.1,0.4-0.3s0.1-0.3,0.1-0.5v-0.1c0-0.4-0.2-0.7-0.5-1c-0.3-0.2-0.8-0.4-1.3-0.4
		c-0.5,0-1,0.1-1.3,0.4c-0.3,0.3-0.5,0.6-0.6,1.1h-1.2c0.1-0.9,0.4-1.5,0.9-1.9c0.5-0.4,1.3-0.6,2.3-0.6c1,0,1.7,0.2,2.2,0.6
		c0.5,0.4,0.7,1,0.7,1.8v4.3c0,0.1,0,0.2,0.1,0.3c0.1,0.1,0.2,0.1,0.3,0.1c0,0,0.1,0,0.2,0c0.1,0,0.2,0,0.2,0v1
		c-0.1,0-0.3,0.1-0.4,0.1s-0.3,0-0.4,0c-0.5,0-0.9-0.1-1.1-0.4c-0.1-0.2-0.3-0.4-0.3-0.8c-0.1,0.1-0.2,0.2-0.3,0.4
		C153.2,58.5,152.4,58.8,151.4,58.8z M154.2,55.5v-0.8c-0.2,0.1-0.5,0.2-0.8,0.2l-1.2,0.2c-0.6,0.1-1.1,0.2-1.4,0.4
		c-0.3,0.2-0.4,0.5-0.4,0.8c0,0.4,0.1,0.8,0.4,1c0.2,0.2,0.6,0.4,1,0.4c0.7,0,1.3-0.2,1.8-0.6c0.3-0.3,0.5-0.6,0.7-0.9
		c0-0.1,0-0.2,0-0.3C154.1,55.8,154.2,55.6,154.2,55.5z"/>
	<path d="M157.7,47.8h0.7h0.7v10.8h-0.7h-0.7V47.8z"/>
	<path d="M161.1,47.8h1.3v1.5h-1.3V47.8z M161.1,50.7h0.7h0.7v7.8h-0.7h-0.7V50.7z"/>
	<path d="M168.9,53c0-0.4-0.2-0.8-0.5-1c-0.3-0.2-0.7-0.4-1.3-0.4c-0.5,0-1,0.1-1.2,0.3c-0.3,0.2-0.4,0.5-0.4,0.8
		c0,0.3,0.1,0.5,0.3,0.6s0.6,0.3,1.2,0.4l1.4,0.3c0.8,0.2,1.3,0.4,1.6,0.8c0.3,0.3,0.5,0.8,0.5,1.4c0,0.8-0.3,1.4-0.8,1.8
		s-1.3,0.7-2.3,0.7c-1.1,0-1.9-0.2-2.5-0.7c-0.5-0.4-0.8-1.1-0.9-2.1h1.3c0.1,0.6,0.3,1,0.6,1.2c0.3,0.3,0.8,0.4,1.5,0.4
		c0.6,0,1-0.1,1.3-0.3s0.5-0.6,0.5-1c0-0.3-0.1-0.5-0.3-0.6s-0.6-0.3-1.2-0.4l-1.4-0.3c-0.7-0.2-1.3-0.4-1.6-0.7
		c-0.3-0.3-0.5-0.8-0.5-1.3c0-0.7,0.3-1.3,0.8-1.8c0.5-0.4,1.2-0.6,2.1-0.6c0.9,0,1.6,0.2,2.2,0.7c0.5,0.4,0.8,1.1,0.9,1.8H168.9z"
		/>
	<path d="M171.9,47.8h1.3v1.5h-1.3V47.8z M171.9,50.7h0.7h0.7v7.8h-0.7h-0.7V50.7z"/>
	<path d="M178.4,58.8c-1.1,0-2-0.4-2.6-1.1s-1-1.7-1-2.9c0-1.3,0.3-2.4,1-3.1c0.7-0.8,1.6-1.2,2.7-1.2c1,0,1.9,0.4,2.5,1.1
		s0.9,1.8,0.9,3l0,0.5h-5.7c0.1,0.8,0.2,1.4,0.5,1.8c0.4,0.5,1,0.7,1.8,0.7c0.5,0,0.9-0.1,1.3-0.4s0.6-0.6,0.7-1.1h1.3
		c-0.2,0.9-0.6,1.5-1.2,2C180.1,58.6,179.3,58.8,178.4,58.8z M180.6,54.1c0-0.7-0.2-1.3-0.5-1.7c-0.4-0.4-0.9-0.7-1.6-0.7
		c-0.7,0-1.2,0.3-1.7,0.8c-0.3,0.4-0.5,0.9-0.6,1.6H180.6z"/>
	<path d="M183.7,50.7h0.6h0.6v1.3c0.1-0.2,0.2-0.4,0.4-0.6c0.5-0.7,1.1-1,1.8-1c0.1,0,0.2,0,0.4,0.1v1.3l-0.3,0
		c-0.7,0-1.3,0.2-1.7,0.6c-0.4,0.4-0.6,1-0.6,1.8v4.2h-0.7h-0.7V50.7z"/>
	<path d="M191.7,58.8c-1.1,0-2-0.4-2.6-1.1s-1-1.7-1-2.9c0-1.3,0.3-2.4,1-3.1c0.7-0.8,1.6-1.2,2.7-1.2c1,0,1.9,0.4,2.5,1.1
		s0.9,1.8,0.9,3l0,0.5h-5.7c0.1,0.8,0.2,1.4,0.5,1.8c0.4,0.5,1,0.7,1.8,0.7c0.5,0,0.9-0.1,1.3-0.4c0.4-0.3,0.6-0.6,0.7-1.1h1.3
		c-0.2,0.9-0.6,1.5-1.2,2C193.4,58.6,192.7,58.8,191.7,58.8z M193.9,54.1c0-0.7-0.2-1.3-0.5-1.7c-0.4-0.4-0.9-0.7-1.6-0.7
		c-0.7,0-1.2,0.3-1.7,0.8c-0.3,0.4-0.5,0.9-0.6,1.6H193.9z"/>
	<path d="M196.9,50.7h0.6h0.6v1.2l0.3-0.4c0.6-0.7,1.3-1,2.1-1c0.9,0,1.5,0.2,2,0.7s0.7,1.1,0.7,2v5.4h-0.7H202v-4.9
		c0-0.7-0.1-1.2-0.4-1.5c-0.3-0.3-0.7-0.5-1.3-0.5c-0.6,0-1.1,0.2-1.5,0.7c-0.4,0.5-0.6,1.1-0.6,2v4.2h-0.7h-0.7V50.7z"/>
</g>
<rect id="rect6099" x="191.9" y="61.1" class="st5" width="80.8" height="49.5"/>
<g class="st7">
	<path d="M214.7,63.8h0.7h0.7l3.2,9h-0.7H218l-0.9-2.6h-3.6l-0.9,2.6h-0.6h-0.6L214.7,63.8z M213.9,69.1h2.8l-1.4-4h0L213.9,69.1z"
		/>
	<path d="M221.4,70.5c0,0.5,0.1,0.9,0.3,1.2s0.6,0.4,1,0.4c0.5,0,0.9-0.2,1.3-0.6c0.3-0.4,0.5-1,0.5-1.7v-3.5h0.5h0.5v6.5H225h-0.5
		v-1c-0.1,0.1-0.2,0.2-0.2,0.3c-0.5,0.6-1.1,0.8-1.8,0.8c-0.7,0-1.3-0.2-1.7-0.6c-0.4-0.4-0.6-0.9-0.6-1.7v-4.5h0.5h0.5V70.5z"/>
	<path d="M228.6,67.2v5.6H228h-0.5v-5.6h-0.9v-0.9h0.9v-1.1c0-0.5,0.1-0.8,0.4-1.1c0.3-0.2,0.7-0.4,1.3-0.4l0.5,0v1l-0.4,0
		c-0.2,0-0.4,0.1-0.5,0.2c-0.1,0.1-0.2,0.3-0.2,0.6v0.8h1.1v0.9H228.6z"/>
	<path d="M233.1,72.8c-0.4,0.1-0.6,0.1-0.8,0.1c-0.5,0-0.8-0.1-1-0.3c-0.2-0.2-0.3-0.6-0.3-1.1v-4.3H230v-0.9h0.9v-1.8h1.1v1.8h1
		v0.9h-1v4.3c0,0.1,0.1,0.3,0.2,0.3c0.1,0.1,0.3,0.1,0.5,0.1h0.4V72.8z"/>
	<path d="M234.3,66.2h0.5h0.5v1.1c0.1-0.2,0.2-0.3,0.3-0.5c0.4-0.6,0.9-0.8,1.5-0.8c0.1,0,0.2,0,0.3,0.1v1.1l-0.2,0
		c-0.6,0-1.1,0.2-1.4,0.5c-0.3,0.4-0.5,0.9-0.5,1.5v3.5h-0.5h-0.5V66.2z"/>
	<path d="M240,72.9c-0.6,0-1.1-0.2-1.5-0.5c-0.4-0.3-0.6-0.8-0.6-1.4c0-0.6,0.2-1.1,0.5-1.4c0.4-0.3,0.9-0.6,1.5-0.6l1.5-0.2
		c0.1,0,0.2,0,0.3-0.1c0.1,0,0.3-0.1,0.3-0.2c0.1-0.1,0.1-0.2,0.1-0.4v-0.1c0-0.3-0.1-0.6-0.4-0.8c-0.3-0.2-0.6-0.3-1.1-0.3
		c-0.5,0-0.8,0.1-1.1,0.3c-0.3,0.2-0.4,0.5-0.5,0.9h-1c0.1-0.7,0.3-1.3,0.8-1.6c0.5-0.4,1.1-0.5,1.9-0.5c0.8,0,1.4,0.2,1.8,0.5
		s0.6,0.8,0.6,1.5v3.6c0,0.1,0,0.2,0.1,0.3s0.2,0.1,0.3,0.1c0,0,0.1,0,0.1,0c0.1,0,0.1,0,0.2,0v0.8c-0.1,0-0.2,0.1-0.3,0.1
		c-0.1,0-0.2,0-0.3,0c-0.4,0-0.7-0.1-0.9-0.3c-0.1-0.2-0.2-0.4-0.3-0.6c-0.1,0.1-0.2,0.2-0.3,0.3C241.5,72.7,240.8,72.9,240,72.9z
		 M242.3,70.2v-0.7c-0.2,0.1-0.4,0.2-0.7,0.2l-1,0.1c-0.5,0.1-0.9,0.2-1.2,0.4c-0.2,0.2-0.4,0.4-0.4,0.7c0,0.4,0.1,0.6,0.3,0.8
		c0.2,0.2,0.5,0.3,0.8,0.3c0.6,0,1.1-0.2,1.5-0.5c0.3-0.2,0.5-0.5,0.5-0.7c0-0.1,0-0.1,0-0.3C242.3,70.5,242.3,70.3,242.3,70.2z
		 M239.3,63.9h1.1v1.3h-1.1V63.9z M241.3,63.9h1.1v1.3h-1.1V63.9z"/>
	<path d="M247.7,74.6c0.6,0,1.1-0.2,1.4-0.6c0.3-0.4,0.5-1,0.5-1.7v-0.2l0,0c-0.5,0.6-1,0.9-1.8,0.9c-0.9,0-1.6-0.3-2.1-1
		s-0.8-1.5-0.8-2.6c0-1,0.3-1.8,0.8-2.4c0.5-0.6,1.2-0.9,2-0.9c0.8,0,1.4,0.3,1.9,1l0.1,0.1v-0.9h1v6c0,1.1-0.3,1.9-0.7,2.4
		c-0.5,0.5-1.2,0.8-2.3,0.8c-0.7,0-1.3-0.2-1.8-0.5c-0.4-0.3-0.7-0.8-0.8-1.5h1.1c0.1,0.3,0.2,0.6,0.5,0.8S247.3,74.6,247.7,74.6z
		 M247.9,67c-0.6,0-1.1,0.2-1.3,0.6c-0.3,0.4-0.4,1-0.4,1.9c0,0.8,0.2,1.4,0.5,1.9c0.3,0.4,0.7,0.6,1.3,0.6c0.5,0,1-0.2,1.3-0.6
		c0.3-0.4,0.5-0.9,0.5-1.6c0-0.9-0.1-1.6-0.4-2.1S248.5,67,247.9,67z"/>
	<path d="M254.9,72.9c-0.9,0-1.7-0.3-2.2-0.9c-0.5-0.6-0.8-1.4-0.8-2.4c0-1.1,0.3-2,0.8-2.6c0.6-0.6,1.3-1,2.3-1
		c0.9,0,1.5,0.3,2.1,1c0.5,0.6,0.8,1.5,0.8,2.5l0,0.4h-4.8c0,0.7,0.2,1.1,0.4,1.5c0.3,0.4,0.8,0.6,1.5,0.6c0.4,0,0.8-0.1,1.1-0.4
		c0.3-0.2,0.5-0.5,0.6-0.9h1.1c-0.2,0.7-0.5,1.3-1,1.6C256.3,72.8,255.7,72.9,254.9,72.9z M256.7,69c0-0.6-0.2-1.1-0.5-1.4
		c-0.3-0.4-0.7-0.6-1.3-0.6c-0.6,0-1,0.2-1.4,0.6c-0.3,0.3-0.4,0.8-0.5,1.3H256.7z"/>
</g>
<rect id="rect6105" x="192" y="129.7" class="st8" width="80.7" height="58.7"/>
<g class="st7">
	<path d="M197.9,141.7c-0.8-0.9-1.2-2-1.2-3.4c0-1.4,0.4-2.6,1.2-3.4s1.9-1.3,3.2-1.3c1.3,0,2.4,0.4,3.2,1.3s1.2,2,1.2,3.4
		c0,1.4-0.4,2.6-1.2,3.4c-0.8,0.9-1.9,1.3-3.2,1.3C199.8,143,198.7,142.6,197.9,141.7z M203.3,140.9c0.6-0.7,0.9-1.6,0.9-2.6
		c0-1.1-0.3-2-0.9-2.7c-0.6-0.7-1.3-1-2.3-1c-0.9,0-1.7,0.3-2.3,1c-0.6,0.7-0.9,1.6-0.9,2.7c0,1.1,0.3,2,0.9,2.6
		c0.6,0.7,1.3,1,2.3,1C202,141.9,202.8,141.6,203.3,140.9z"/>
	<path d="M206.9,136.2h0.5h0.5v1.1c0.1-0.2,0.2-0.3,0.3-0.5c0.4-0.6,0.9-0.8,1.5-0.8c0.1,0,0.2,0,0.3,0.1v1.1l-0.2,0
		c-0.6,0-1.1,0.2-1.4,0.5c-0.3,0.4-0.5,0.9-0.5,1.5v3.5h-0.5h-0.5V136.2z"/>
	<path d="M213.4,142.9c-0.9,0-1.6-0.3-2.1-1s-0.8-1.5-0.8-2.6c0-1,0.3-1.8,0.8-2.4c0.5-0.6,1.2-0.9,2-0.9c0.8,0,1.4,0.3,1.9,1
		l0.1,0.1v-3.4h0.5h0.5v9h-0.5h-0.5v-0.9l-0.1,0.2C214.7,142.7,214.1,142.9,213.4,142.9z M213.5,137c-0.6,0-1.1,0.2-1.3,0.6
		c-0.3,0.4-0.4,1-0.4,1.9c0,0.8,0.2,1.4,0.5,1.9s0.7,0.7,1.3,0.7c0.5,0,1-0.2,1.3-0.6c0.3-0.4,0.5-0.9,0.5-1.6
		c0-0.9-0.2-1.6-0.5-2.1C214.5,137.3,214,137,213.5,137z"/>
	<path d="M220.5,142.9c-0.9,0-1.7-0.3-2.2-0.9c-0.5-0.6-0.8-1.4-0.8-2.4c0-1.1,0.3-2,0.8-2.6c0.6-0.6,1.3-1,2.3-1
		c0.9,0,1.5,0.3,2.1,1c0.5,0.6,0.8,1.5,0.8,2.5l0,0.4h-4.8c0,0.7,0.2,1.1,0.4,1.5c0.3,0.4,0.8,0.6,1.5,0.6c0.4,0,0.8-0.1,1.1-0.4
		c0.3-0.2,0.5-0.5,0.6-0.9h1.1c-0.2,0.7-0.5,1.3-1,1.6C221.9,142.8,221.3,142.9,220.5,142.9z M222.3,139c0-0.6-0.2-1.1-0.5-1.4
		c-0.3-0.4-0.7-0.6-1.3-0.6c-0.6,0-1,0.2-1.4,0.6c-0.3,0.3-0.4,0.8-0.5,1.3H222.3z"/>
	<path d="M225,136.2h0.5h0.5v1.1c0.1-0.2,0.2-0.3,0.3-0.5c0.4-0.6,0.9-0.8,1.5-0.8c0.1,0,0.2,0,0.3,0.1v1.1l-0.2,0
		c-0.6,0-1.1,0.2-1.4,0.5c-0.3,0.4-0.5,0.9-0.5,1.5v3.5h-0.5H225V136.2z"/>
	<path d="M229.3,133.8h0.6h0.6v9h-0.6h-0.6V133.8z"/>
	<path d="M234.8,142.8c-0.4,0.1-0.6,0.1-0.8,0.1c-0.5,0-0.8-0.1-1-0.3c-0.2-0.2-0.3-0.6-0.3-1.1v-4.3h-0.9v-0.9h0.9v-1.8h1.1v1.8h1
		v0.9h-1v4.3c0,0.1,0.1,0.3,0.2,0.3c0.1,0.1,0.3,0.1,0.5,0.1h0.4V142.8z"/>
	<path d="M238.6,142.9c-0.9,0-1.6-0.3-2.2-0.9c-0.5-0.6-0.8-1.4-0.8-2.4c0-1.1,0.3-2,0.8-2.6c0.6-0.6,1.3-1,2.3-1
		c0.9,0,1.5,0.3,2.1,1c0.5,0.6,0.8,1.5,0.8,2.5l0,0.4h-4.8c0,0.7,0.2,1.1,0.4,1.5c0.3,0.4,0.8,0.6,1.5,0.6c0.4,0,0.8-0.1,1.1-0.4
		s0.5-0.5,0.6-0.9h1.1c-0.2,0.7-0.5,1.3-1,1.6C240,142.8,239.3,142.9,238.6,142.9z M240.4,139c0-0.6-0.2-1.1-0.5-1.4
		c-0.3-0.4-0.7-0.6-1.3-0.6c-0.6,0-1,0.2-1.4,0.6c-0.3,0.3-0.4,0.8-0.5,1.3H240.4z"/>
	<path d="M242.9,136.2h0.5h0.5v1l0.2-0.3c0.5-0.6,1.1-0.9,1.8-0.9c0.6,0,1.1,0.2,1.4,0.5c0.2,0.2,0.3,0.3,0.4,0.5l0.2-0.2
		c0.5-0.5,1-0.8,1.7-0.8c0.7,0,1.2,0.2,1.6,0.6c0.4,0.4,0.6,0.9,0.6,1.6v4.6h-0.5h-0.5v-4.2c0-0.5-0.1-0.9-0.3-1.1
		c-0.2-0.3-0.5-0.4-0.9-0.4c-0.5,0-0.9,0.2-1.1,0.6c-0.3,0.4-0.4,0.9-0.4,1.5v3.7h-0.5h-0.5v-4.5c0-0.4-0.1-0.7-0.3-0.9
		c-0.2-0.2-0.5-0.3-0.8-0.3c-0.5,0-0.9,0.2-1.2,0.6c-0.3,0.4-0.5,1-0.5,1.6v3.5h-0.5h-0.5V136.2z"/>
	<path d="M257,138.1c0-0.4-0.2-0.6-0.4-0.8c-0.3-0.2-0.6-0.3-1.1-0.3c-0.5,0-0.8,0.1-1,0.2s-0.4,0.4-0.4,0.7c0,0.2,0.1,0.4,0.3,0.5
		s0.5,0.2,1,0.4l1.1,0.3c0.6,0.2,1.1,0.4,1.4,0.6c0.3,0.3,0.4,0.6,0.4,1.1c0,0.6-0.2,1.2-0.7,1.5c-0.5,0.4-1.1,0.6-1.9,0.6
		c-0.9,0-1.6-0.2-2.1-0.5c-0.5-0.4-0.7-0.9-0.8-1.7h1.1c0.1,0.5,0.2,0.8,0.5,1c0.3,0.2,0.7,0.3,1.3,0.3c0.5,0,0.9-0.1,1.1-0.3
		c0.3-0.2,0.4-0.5,0.4-0.8c0-0.2-0.1-0.4-0.3-0.5s-0.5-0.2-1-0.4l-1.1-0.3c-0.6-0.1-1.1-0.4-1.3-0.6c-0.3-0.3-0.4-0.6-0.4-1.1
		c0-0.6,0.2-1.1,0.7-1.5c0.4-0.4,1-0.5,1.8-0.5c0.8,0,1.4,0.2,1.8,0.6s0.7,0.9,0.7,1.5H257z"/>
</g>
<g class="st7">
	<path d="M95.6,136.2h0.8h0.8l3.9,10.8h-0.8h-0.8l-1.1-3.1h-4.3l-1.1,3.1h-0.7h-0.8L95.6,136.2z M94.7,142.5h3.4l-1.7-4.8h0
		L94.7,142.5z"/>
	<path d="M102.4,136.2h0.7h0.7v6.2l3.3-3.3h0.8h0.8l-3,2.9l3.2,4.9H108h-0.9l-2.4-4l-1,1v3H103h-0.7V136.2z"/>
	<path d="M112.7,146.9c-0.4,0.1-0.8,0.1-1,0.1c-0.6,0-1-0.1-1.2-0.4s-0.4-0.7-0.4-1.3v-5.2h-1.1v-1.1h1.1v-2.2h1.3v2.2h1.2v1.1h-1.2
		v5.2c0,0.2,0.1,0.3,0.2,0.4c0.1,0.1,0.3,0.2,0.6,0.2h0.5V146.9z"/>
	<path d="M115.4,144.2c0,0.7,0.1,1.1,0.4,1.4c0.3,0.3,0.7,0.4,1.2,0.4c0.6,0,1.1-0.2,1.5-0.7c0.4-0.5,0.6-1.2,0.6-2v-4.2h0.7h0.7
		v7.8h-0.6h-0.6v-1.2c-0.1,0.1-0.2,0.3-0.3,0.4c-0.6,0.7-1.3,1-2.1,1c-0.9,0-1.6-0.2-2-0.7s-0.7-1.1-0.7-2v-5.4h0.7h0.7V144.2z"/>
	<path d="M124.4,147.2c-0.8,0-1.4-0.2-1.8-0.6s-0.7-1-0.7-1.7c0-0.7,0.2-1.3,0.6-1.7c0.4-0.4,1-0.7,1.8-0.8l1.8-0.2
		c0.1,0,0.3,0,0.4-0.1c0.2,0,0.3-0.1,0.4-0.3s0.1-0.3,0.1-0.5v-0.1c0-0.4-0.2-0.7-0.5-1c-0.3-0.2-0.8-0.4-1.3-0.4
		c-0.5,0-1,0.1-1.3,0.4c-0.3,0.3-0.5,0.6-0.6,1.1h-1.2c0.1-0.9,0.4-1.5,0.9-1.9c0.5-0.4,1.3-0.6,2.3-0.6c1,0,1.7,0.2,2.2,0.6
		c0.5,0.4,0.7,1,0.7,1.8v4.3c0,0.1,0,0.2,0.1,0.3c0.1,0.1,0.2,0.1,0.3,0.1c0,0,0.1,0,0.2,0c0.1,0,0.2,0,0.2,0v1
		c-0.1,0-0.3,0.1-0.4,0.1s-0.3,0-0.4,0c-0.5,0-0.9-0.1-1.1-0.4c-0.1-0.2-0.3-0.4-0.3-0.8c-0.1,0.1-0.2,0.2-0.3,0.4
		C126.2,146.9,125.4,147.2,124.4,147.2z M127.2,143.9V143c-0.2,0.1-0.5,0.2-0.8,0.2l-1.2,0.2c-0.6,0.1-1.1,0.2-1.4,0.4
		c-0.3,0.2-0.4,0.5-0.4,0.8c0,0.4,0.1,0.8,0.4,1c0.2,0.2,0.6,0.4,1,0.4c0.7,0,1.3-0.2,1.8-0.6c0.3-0.3,0.5-0.6,0.7-0.9
		c0-0.1,0-0.2,0-0.3C127.1,144.2,127.2,144,127.2,143.9z"/>
	<path d="M130.7,136.2h0.7h0.7V147h-0.7h-0.7V136.2z"/>
	<path d="M134.1,136.2h1.3v1.5h-1.3V136.2z M134.1,139.1h0.7h0.7v7.8h-0.7h-0.7V139.1z"/>
	<path d="M141.9,141.4c0-0.4-0.2-0.8-0.5-1c-0.3-0.2-0.7-0.4-1.3-0.4c-0.5,0-1,0.1-1.2,0.3c-0.3,0.2-0.4,0.5-0.4,0.8
		c0,0.3,0.1,0.5,0.3,0.6s0.6,0.3,1.2,0.4l1.4,0.3c0.8,0.2,1.3,0.4,1.6,0.8c0.3,0.3,0.5,0.8,0.5,1.4c0,0.8-0.3,1.4-0.8,1.8
		s-1.3,0.7-2.3,0.7c-1.1,0-1.9-0.2-2.5-0.7c-0.5-0.4-0.8-1.1-0.9-2.1h1.3c0.1,0.6,0.3,1,0.6,1.2c0.3,0.3,0.8,0.4,1.5,0.4
		c0.6,0,1-0.1,1.3-0.3s0.5-0.6,0.5-1c0-0.3-0.1-0.5-0.3-0.6s-0.6-0.3-1.2-0.4l-1.4-0.3c-0.7-0.2-1.3-0.4-1.6-0.7
		c-0.3-0.3-0.5-0.8-0.5-1.3c0-0.7,0.3-1.3,0.8-1.8c0.5-0.4,1.2-0.6,2.1-0.6c0.9,0,1.6,0.2,2.2,0.7c0.5,0.4,0.8,1.1,0.9,1.8H141.9z"
		/>
	<path d="M144.9,136.2h1.3v1.5h-1.3V136.2z M144.9,139.1h0.7h0.7v7.8h-0.7h-0.7V139.1z"/>
	<path d="M151.4,147.2c-1.1,0-2-0.4-2.6-1.1s-1-1.7-1-2.9c0-1.3,0.3-2.4,1-3.1c0.7-0.8,1.6-1.2,2.7-1.2c1,0,1.9,0.4,2.5,1.1
		s0.9,1.8,0.9,3l0,0.5h-5.7c0.1,0.8,0.2,1.4,0.5,1.8c0.4,0.5,1,0.7,1.8,0.7c0.5,0,0.9-0.1,1.3-0.4c0.4-0.3,0.6-0.6,0.7-1.1h1.3
		c-0.2,0.9-0.6,1.5-1.2,2C153.1,146.9,152.3,147.2,151.4,147.2z M153.6,142.4c0-0.7-0.2-1.3-0.5-1.7c-0.4-0.4-0.9-0.7-1.6-0.7
		c-0.7,0-1.2,0.3-1.7,0.8c-0.3,0.4-0.5,0.9-0.6,1.6H153.6z"/>
	<path d="M156.7,139.1h0.6h0.6v1.3c0.1-0.2,0.2-0.4,0.4-0.6c0.5-0.7,1.1-1,1.8-1c0.1,0,0.2,0,0.4,0.1v1.3l-0.3,0
		c-0.7,0-1.3,0.2-1.7,0.6c-0.4,0.4-0.6,1-0.6,1.8v4.2h-0.7h-0.7V139.1z"/>
	<path d="M164.7,147.2c-1.1,0-2-0.4-2.6-1.1s-1-1.7-1-2.9c0-1.3,0.3-2.4,1-3.1c0.7-0.8,1.6-1.2,2.7-1.2c1,0,1.9,0.4,2.5,1.1
		s0.9,1.8,0.9,3l0,0.5h-5.7c0.1,0.8,0.2,1.4,0.5,1.8c0.4,0.5,1,0.7,1.8,0.7c0.5,0,0.9-0.1,1.3-0.4c0.4-0.3,0.6-0.6,0.7-1.1h1.3
		c-0.2,0.9-0.6,1.5-1.2,2C166.4,146.9,165.6,147.2,164.7,147.2z M166.9,142.4c0-0.7-0.2-1.3-0.5-1.7c-0.4-0.4-0.9-0.7-1.6-0.7
		c-0.7,0-1.2,0.3-1.7,0.8c-0.3,0.4-0.5,0.9-0.6,1.6H166.9z"/>
	<path d="M169.9,139.1h0.6h0.6v1.2l0.3-0.4c0.6-0.7,1.3-1,2.1-1c0.9,0,1.5,0.2,2,0.7s0.7,1.1,0.7,2v5.4h-0.7H175V142
		c0-0.7-0.1-1.2-0.4-1.5c-0.3-0.3-0.7-0.5-1.3-0.5c-0.6,0-1.1,0.2-1.5,0.7c-0.4,0.5-0.6,1.1-0.6,2v4.2h-0.7h-0.7V139.1z"/>
</g>
<g class="st7">
	<path d="M102.8,180.5c0-1.2,0.2-2.4,0.6-3.5c0.4-1.1,1.1-2.3,1.9-3.5h0.9c-0.7,1.3-1.2,2.4-1.6,3.6c-0.3,1.1-0.5,2.3-0.5,3.5
		c0,1.2,0.2,2.4,0.5,3.5c0.3,1.1,0.9,2.3,1.6,3.6h-0.9c-0.9-1.2-1.5-2.4-1.9-3.5C103,182.9,102.8,181.7,102.8,180.5z"/>
	<path d="M110.6,186.7c0.8,0,1.3-0.2,1.7-0.7c0.4-0.5,0.6-1.2,0.6-2.1v-0.3l0,0c-0.5,0.7-1.3,1-2.1,1c-1,0-1.9-0.4-2.5-1.2
		c-0.6-0.8-0.9-1.8-0.9-3.2c0-1.2,0.3-2.1,0.9-2.8s1.4-1.1,2.4-1.1c0.9,0,1.7,0.4,2.2,1.2l0.1,0.1v-1.1h1.2v7.3
		c0,1.3-0.3,2.3-0.9,2.9s-1.5,1-2.7,1c-0.9,0-1.6-0.2-2.1-0.6s-0.8-1-0.9-1.8h1.3c0.1,0.4,0.3,0.7,0.6,1
		C109.8,186.6,110.2,186.7,110.6,186.7z M110.9,177.6c-0.7,0-1.3,0.2-1.6,0.7s-0.5,1.2-0.5,2.2c0,1,0.2,1.7,0.6,2.2
		c0.4,0.5,0.9,0.8,1.6,0.8c0.6,0,1.2-0.2,1.5-0.7c0.4-0.5,0.6-1.1,0.6-1.9c0-1.1-0.2-1.9-0.5-2.5
		C112.1,177.9,111.6,177.6,110.9,177.6z"/>
	<path d="M119.3,184.7c-1.1,0-2-0.4-2.6-1.1s-1-1.7-1-2.9c0-1.3,0.3-2.4,1-3.1c0.7-0.8,1.6-1.2,2.7-1.2c1,0,1.9,0.4,2.5,1.1
		s0.9,1.8,0.9,3l0,0.5h-5.7c0.1,0.8,0.2,1.4,0.5,1.8c0.4,0.5,1,0.7,1.8,0.7c0.5,0,0.9-0.1,1.3-0.4c0.4-0.3,0.6-0.6,0.7-1.1h1.3
		c-0.2,0.9-0.6,1.5-1.2,2C121,184.4,120.2,184.7,119.3,184.7z M121.5,179.9c0-0.7-0.2-1.3-0.5-1.7c-0.4-0.4-0.9-0.7-1.6-0.7
		c-0.7,0-1.2,0.3-1.7,0.8c-0.3,0.4-0.5,0.9-0.6,1.6H121.5z"/>
	<path d="M128.9,178.9c0-0.4-0.2-0.8-0.5-1c-0.3-0.2-0.7-0.4-1.3-0.4c-0.5,0-1,0.1-1.2,0.3c-0.3,0.2-0.4,0.5-0.4,0.8
		c0,0.3,0.1,0.5,0.3,0.6s0.6,0.3,1.2,0.4l1.4,0.3c0.8,0.2,1.3,0.4,1.6,0.8c0.3,0.3,0.5,0.8,0.5,1.4c0,0.8-0.3,1.4-0.8,1.8
		s-1.3,0.7-2.3,0.7c-1.1,0-1.9-0.2-2.5-0.7c-0.5-0.4-0.8-1.1-0.9-2.1h1.3c0.1,0.6,0.3,1,0.6,1.2c0.3,0.3,0.8,0.4,1.5,0.4
		c0.6,0,1-0.1,1.3-0.3s0.5-0.6,0.5-1c0-0.3-0.1-0.5-0.3-0.6s-0.6-0.3-1.2-0.4l-1.4-0.3c-0.7-0.2-1.3-0.4-1.6-0.7
		c-0.3-0.3-0.5-0.8-0.5-1.3c0-0.7,0.3-1.3,0.8-1.8c0.5-0.4,1.2-0.6,2.1-0.6c0.9,0,1.6,0.2,2.2,0.7c0.5,0.4,0.8,1.1,0.9,1.8H128.9z"
		/>
	<path d="M131.8,176.6h0.6h0.6v1.1l0.1-0.1c0.6-0.8,1.3-1.3,2.2-1.3c1,0,1.8,0.4,2.4,1.1c0.6,0.7,0.9,1.7,0.9,2.9
		c0,1.4-0.3,2.4-0.9,3.2c-0.6,0.8-1.4,1.2-2.5,1.2c-0.9,0-1.6-0.3-2.1-1l0-0.1v4h-0.7h-0.7V176.6z M135.3,183.5
		c0.7,0,1.2-0.3,1.6-0.8c0.4-0.5,0.5-1.3,0.5-2.3c0-1-0.2-1.7-0.5-2.2c-0.3-0.5-0.9-0.7-1.6-0.7c-0.7,0-1.3,0.3-1.6,0.8
		c-0.3,0.5-0.5,1.4-0.5,2.5c0,0.8,0.2,1.5,0.5,1.9S134.6,183.5,135.3,183.5z"/>
	<path d="M143.5,184.7c-1.1,0-2-0.4-2.6-1.1s-1-1.7-1-2.9c0-1.3,0.3-2.4,1-3.1c0.7-0.8,1.6-1.2,2.7-1.2c1,0,1.9,0.4,2.5,1.1
		s0.9,1.8,0.9,3l0,0.5h-5.7c0.1,0.8,0.2,1.4,0.5,1.8c0.4,0.5,1,0.7,1.8,0.7c0.5,0,0.9-0.1,1.3-0.4c0.4-0.3,0.6-0.6,0.7-1.1h1.3
		c-0.2,0.9-0.6,1.5-1.2,2C145.2,184.4,144.4,184.7,143.5,184.7z M145.7,179.9c0-0.7-0.2-1.3-0.5-1.7c-0.4-0.4-0.9-0.7-1.6-0.7
		c-0.7,0-1.2,0.3-1.7,0.8c-0.3,0.4-0.5,0.9-0.6,1.6H145.7z"/>
	<path d="M148.8,176.6h0.6h0.6v1.3c0.1-0.2,0.2-0.4,0.4-0.6c0.5-0.7,1.1-1,1.8-1c0.1,0,0.2,0,0.4,0.1v1.3l-0.3,0
		c-0.7,0-1.3,0.2-1.7,0.6c-0.4,0.4-0.6,1-0.6,1.8v4.2h-0.7h-0.7V176.6z"/>
	<path d="M153.8,176.6h0.6h0.6v1.3c0.1-0.2,0.2-0.4,0.4-0.6c0.5-0.7,1.1-1,1.8-1c0.1,0,0.2,0,0.4,0.1v1.3l-0.3,0
		c-0.7,0-1.3,0.2-1.7,0.6c-0.4,0.4-0.6,1-0.6,1.8v4.2h-0.7h-0.7V176.6z"/>
	<path d="M161.5,184.4c-0.4,0.1-0.8,0.1-1,0.1c-0.6,0-1-0.1-1.2-0.4s-0.4-0.7-0.4-1.3v-5.2h-1.1v-1.1h1.1v-2.2h1.3v2.2h1.2v1.1h-1.2
		v5.2c0,0.2,0.1,0.3,0.2,0.4c0.1,0.1,0.3,0.2,0.6,0.2h0.5V184.4z"/>
	<path d="M165.8,180.5c0,1.2-0.2,2.4-0.6,3.5c-0.4,1.1-1.1,2.3-1.9,3.5h-0.9c0.7-1.3,1.2-2.4,1.6-3.6c0.3-1.1,0.5-2.3,0.5-3.5
		c0-1.2-0.2-2.4-0.5-3.5c-0.3-1.1-0.9-2.3-1.6-3.6h0.9c0.9,1.2,1.5,2.4,1.9,3.5S165.8,179.3,165.8,180.5z"/>
</g>
<path id="path7998" inkscape:connector-curvature="0" sodipodi:nodetypes="cc" class="st9" d="M232.3,111.3v17.9"/>
<g class="st7">
	<path d="M24,87.8h0.7h0.7V93l5.2-5.2h1h1l-4.6,4.4l4.7,6.4h-0.9h-1l-3.8-5.3l-1.6,1.6v3.8h-0.7H24V87.8z"/>
	<path d="M33.8,90.7h0.6h0.6v1.2l0.3-0.4c0.6-0.7,1.3-1,2.1-1c0.9,0,1.5,0.2,2,0.7s0.7,1.1,0.7,2v5.4h-0.7h-0.7v-4.9
		c0-0.7-0.1-1.2-0.4-1.5c-0.3-0.3-0.7-0.5-1.3-0.5c-0.6,0-1.1,0.2-1.5,0.7c-0.4,0.5-0.6,1.1-0.6,2v4.2h-0.7h-0.7V90.7z"/>
	<path d="M42.7,97.7c-0.7-0.8-1-1.8-1-3c0-1.2,0.3-2.2,1-3s1.5-1.1,2.6-1.1c1.1,0,2,0.4,2.6,1.1s1,1.8,1,3c0,1.2-0.3,2.2-1,3
		s-1.6,1.1-2.6,1.1C44.3,98.8,43.4,98.4,42.7,97.7z M47,96.8c0.4-0.5,0.6-1.3,0.6-2.2S47.4,93,47,92.5c-0.4-0.5-1-0.8-1.7-0.8
		s-1.2,0.3-1.7,0.8c-0.4,0.5-0.6,1.3-0.6,2.2s0.2,1.6,0.6,2.2c0.4,0.5,1,0.8,1.7,0.8S46.6,97.4,47,96.8z"/>
	<path d="M53.4,98.6c-0.4,0.1-0.8,0.1-1,0.1c-0.6,0-1-0.1-1.2-0.4s-0.4-0.7-0.4-1.3v-5.2h-1.1v-1.1h1.1v-2.2h1.3v2.2h1.2v1.1h-1.2
		V97c0,0.2,0.1,0.3,0.2,0.4c0.1,0.1,0.3,0.2,0.6,0.2h0.5V98.6z"/>
	<path d="M57.9,98.8c-1.1,0-2-0.4-2.6-1.1s-1-1.7-1-2.9c0-1.3,0.3-2.4,1-3.1c0.7-0.8,1.6-1.2,2.7-1.2c1,0,1.9,0.4,2.5,1.1
		s0.9,1.8,0.9,3l0,0.5h-5.7c0.1,0.8,0.2,1.4,0.5,1.8c0.4,0.5,1,0.7,1.8,0.7c0.5,0,0.9-0.1,1.3-0.4c0.4-0.3,0.6-0.6,0.7-1.1h1.3
		c-0.2,0.9-0.6,1.5-1.2,2C59.6,98.6,58.8,98.8,57.9,98.8z M60.1,94.1c0-0.7-0.2-1.3-0.5-1.7c-0.4-0.4-0.9-0.7-1.6-0.7
		c-0.7,0-1.2,0.3-1.7,0.8c-0.3,0.4-0.5,0.9-0.6,1.6H60.1z"/>
	<path d="M63,90.7h0.6h0.6v1.2l0.3-0.4c0.6-0.7,1.3-1,2.1-1c0.9,0,1.5,0.2,2,0.7s0.7,1.1,0.7,2v5.4h-0.7h-0.7v-4.9
		c0-0.7-0.1-1.2-0.4-1.5c-0.3-0.3-0.7-0.5-1.3-0.5c-0.6,0-1.1,0.2-1.5,0.7c-0.4,0.5-0.6,1.1-0.6,2v4.2h-0.7H63V90.7z"/>
	<path d="M78.6,91.1h-2.5V90c0.7,0,1.3-0.1,1.8-0.5c0.5-0.3,0.8-0.8,1-1.5H80v10.5h-0.7h-0.7V91.1z"/>
</g>
<g class="st7">
	<path d="M23.7,200.7h0.7h0.7v5.2l5.2-5.2h1h1l-4.6,4.4l4.7,6.4h-0.9h-1l-3.8-5.3l-1.6,1.6v3.8h-0.7h-0.7V200.7z"/>
	<path d="M33.5,203.6h0.6h0.6v1.2l0.3-0.4c0.6-0.7,1.3-1,2.1-1c0.9,0,1.5,0.2,2,0.7s0.7,1.1,0.7,2v5.4h-0.7h-0.7v-4.9
		c0-0.7-0.1-1.2-0.4-1.5c-0.3-0.3-0.7-0.5-1.3-0.5c-0.6,0-1.1,0.2-1.5,0.7c-0.4,0.5-0.6,1.1-0.6,2v4.2h-0.7h-0.7V203.6z"/>
	<path d="M42.4,210.5c-0.7-0.8-1-1.8-1-3c0-1.2,0.3-2.2,1-3s1.5-1.1,2.6-1.1c1.1,0,2,0.4,2.6,1.1s1,1.8,1,3c0,1.2-0.3,2.2-1,3
		s-1.6,1.1-2.6,1.1C44,211.7,43.1,211.3,42.4,210.5z M46.7,209.7c0.4-0.5,0.6-1.3,0.6-2.2s-0.2-1.6-0.6-2.2c-0.4-0.5-1-0.8-1.7-0.8
		s-1.2,0.3-1.7,0.8c-0.4,0.5-0.6,1.3-0.6,2.2s0.2,1.6,0.6,2.2c0.4,0.5,1,0.8,1.7,0.8S46.3,210.2,46.7,209.7z"/>
	<path d="M53.1,211.4c-0.4,0.1-0.8,0.1-1,0.1c-0.6,0-1-0.1-1.2-0.4s-0.4-0.7-0.4-1.3v-5.2h-1.1v-1.1h1.1v-2.2h1.3v2.2h1.2v1.1h-1.2
		v5.2c0,0.2,0.1,0.3,0.2,0.4c0.1,0.1,0.3,0.2,0.6,0.2h0.5V211.4z"/>
	<path d="M57.6,211.7c-1.1,0-2-0.4-2.6-1.1s-1-1.7-1-2.9c0-1.3,0.3-2.4,1-3.1c0.7-0.8,1.6-1.2,2.7-1.2c1,0,1.9,0.4,2.5,1.1
		s0.9,1.8,0.9,3l0,0.5h-5.7c0.1,0.8,0.2,1.4,0.5,1.8c0.4,0.5,1,0.7,1.8,0.7c0.5,0,0.9-0.1,1.3-0.4c0.4-0.3,0.6-0.6,0.7-1.1H61
		c-0.2,0.9-0.6,1.5-1.2,2C59.2,211.4,58.5,211.7,57.6,211.7z M59.8,206.9c0-0.7-0.2-1.3-0.5-1.7c-0.4-0.4-0.9-0.7-1.6-0.7
		c-0.7,0-1.2,0.3-1.7,0.8c-0.3,0.4-0.5,0.9-0.6,1.6H59.8z"/>
	<path d="M62.7,203.6h0.6H64v1.2l0.3-0.4c0.6-0.7,1.3-1,2.1-1c0.9,0,1.5,0.2,2,0.7s0.7,1.1,0.7,2v5.4h-0.7h-0.7v-4.9
		c0-0.7-0.1-1.2-0.4-1.5c-0.3-0.3-0.7-0.5-1.3-0.5c-0.6,0-1.1,0.2-1.5,0.7c-0.4,0.5-0.6,1.1-0.6,2v4.2h-0.7h-0.7V203.6z"/>
	<path d="M81.9,204c0,0.8-0.2,1.4-0.6,1.9c-0.4,0.5-1.1,1.1-2.2,1.7c-1.2,0.7-2,1.3-2.4,1.8c-0.2,0.2-0.3,0.5-0.4,0.8h5.7v1.3h-7.2
		v0c0-1.1,0.3-2,0.8-2.7s1.6-1.5,3.1-2.3c0.7-0.4,1.2-0.8,1.5-1.1c0.3-0.3,0.4-0.8,0.4-1.3c0-0.6-0.2-1-0.6-1.4S79,202,78.4,202
		c-0.7,0-1.2,0.2-1.5,0.7c-0.4,0.4-0.6,1.1-0.6,1.9h-1.3c0-1.2,0.3-2.1,0.9-2.7c0.6-0.7,1.5-1,2.7-1c1,0,1.8,0.3,2.4,0.9
		C81.6,202.3,81.9,203.1,81.9,204z"/>
</g>
<line class="st10" x1="90" y1="51.5" x2="177.1" y2="85.7"/>
<line class="st10" x1="90.5" y1="157.4" x2="177.8" y2="157.4"/>
</svg>
